<svg id="svg" version="1.1" xmlns="http://www.w3.org/2000/svg" xmlns:xlink="http://www.w3.org/1999/xlink" width="400" height="355.55555555555554" viewBox="0, 0, 400,355.55555555555554"><g id="svgg"><path id="path0" d="M163.810 110.216 C 163.685 110.691,163.473 110.969,163.337 110.834 C 163.202 110.698,162.740 111.063,162.311 111.644 C 161.882 112.226,161.427 112.597,161.299 112.469 C 161.171 112.342,161.067 112.460,161.067 112.732 C 161.067 113.004,160.467 113.774,159.733 114.443 C 159.000 115.113,158.640 115.537,158.933 115.386 C 159.227 115.236,158.827 115.715,158.044 116.451 C 157.262 117.187,156.942 117.589,157.333 117.344 C 157.724 117.099,157.524 117.368,156.889 117.942 C 156.253 118.516,155.733 119.183,155.733 119.425 C 155.733 119.666,155.573 119.765,155.378 119.644 C 155.182 119.524,155.022 119.759,155.022 120.168 C 155.022 120.577,154.782 121.003,154.489 121.116 C 154.196 121.228,153.956 121.530,153.956 121.786 C 153.956 122.042,153.836 122.307,153.689 122.374 C 153.542 122.441,152.942 123.048,152.356 123.723 C 151.769 124.398,151.601 124.717,151.983 124.431 C 152.672 123.915,152.672 123.919,151.983 124.878 C 151.601 125.409,151.159 125.849,151.001 125.855 C 150.843 125.862,150.812 126.027,150.933 126.222 C 151.054 126.418,150.984 126.578,150.777 126.578 C 150.569 126.578,150.419 126.698,150.442 126.844 C 150.549 127.521,150.371 128.024,150.088 127.849 C 149.916 127.743,149.678 128.144,149.559 128.740 C 149.438 129.343,149.182 129.726,148.982 129.603 C 148.779 129.477,148.620 129.739,148.617 130.201 C 148.609 131.301,148.089 132.063,147.566 131.740 C 147.290 131.569,147.166 131.708,147.212 132.139 C 147.341 133.362,147.202 134.088,146.878 133.887 C 146.700 133.778,146.634 134.048,146.731 134.488 C 146.872 135.131,146.831 135.184,146.525 134.756 C 146.196 134.295,146.143 134.307,146.139 134.844 C 146.136 135.187,145.973 135.467,145.778 135.467 C 145.582 135.467,145.422 136.107,145.422 136.889 C 145.422 137.916,145.274 138.311,144.889 138.311 C 144.516 138.311,144.356 138.686,144.356 139.556 C 144.356 140.240,144.186 140.800,143.979 140.800 C 143.772 140.800,143.701 140.960,143.822 141.156 C 143.943 141.351,143.869 141.511,143.658 141.511 C 143.446 141.511,143.345 141.898,143.432 142.379 C 143.521 142.870,143.370 143.430,143.084 143.667 C 142.460 144.185,142.413 144.836,143.022 144.528 C 143.267 144.404,143.225 144.515,142.931 144.774 C 142.636 145.033,142.447 145.604,142.511 146.044 C 142.578 146.505,142.441 146.844,142.188 146.844 C 141.946 146.844,141.849 146.945,141.973 147.069 C 142.096 147.192,142.052 147.564,141.875 147.896 C 141.698 148.227,141.516 149.398,141.472 150.499 C 141.427 151.600,141.258 152.419,141.095 152.318 C 140.933 152.218,140.800 152.315,140.800 152.533 C 140.800 152.752,140.653 152.840,140.474 152.729 C 140.286 152.613,140.152 153.844,140.157 155.642 C 140.162 157.354,140.129 158.876,140.083 159.022 C 139.872 159.701,139.819 160.086,139.778 161.265 C 139.753 161.961,139.605 162.452,139.449 162.355 C 139.016 162.087,139.093 164.763,139.527 165.052 C 139.787 165.225,139.768 165.441,139.464 165.745 C 138.967 166.242,138.848 168.683,139.335 168.382 C 139.507 168.276,139.634 168.986,139.617 169.961 C 139.600 170.936,139.459 171.733,139.304 171.733 C 139.149 171.733,139.038 172.173,139.058 172.711 L 139.093 173.689 139.378 172.800 C 139.617 172.052,139.670 172.024,139.713 172.622 C 139.741 173.013,139.841 174.533,139.936 176.000 C 140.276 181.245,140.424 181.549,142.771 181.811 C 143.545 181.897,144.147 182.119,144.109 182.303 C 144.071 182.487,144.264 182.637,144.537 182.637 C 144.811 182.637,144.953 182.504,144.852 182.341 C 144.570 181.884,145.222 181.990,145.759 182.489 C 146.142 182.844,146.187 182.844,145.987 182.489 C 145.849 182.244,145.905 182.044,146.112 182.044 C 146.319 182.044,146.489 182.204,146.489 182.400 C 146.489 182.596,146.956 182.756,147.526 182.756 C 148.096 182.756,148.619 182.922,148.686 183.126 C 148.754 183.330,149.288 183.540,149.872 183.594 C 150.456 183.647,150.895 183.875,150.849 184.099 C 150.802 184.324,150.982 184.424,151.247 184.322 C 151.513 184.220,152.014 184.420,152.360 184.766 C 152.706 185.112,153.203 185.427,153.465 185.465 C 153.995 185.543,155.071 186.518,155.005 186.861 C 154.982 186.982,155.082 187.188,155.227 187.319 C 155.373 187.449,155.377 187.356,155.236 187.111 C 155.095 186.867,155.150 186.667,155.357 186.667 C 155.709 186.667,155.884 187.172,155.767 187.849 C 155.739 188.010,155.880 188.040,156.080 187.917 C 156.280 187.793,156.444 187.861,156.444 188.068 C 156.444 188.275,156.664 188.444,156.933 188.444 C 157.202 188.444,157.520 188.931,157.639 189.526 C 157.915 190.908,160.706 191.074,160.717 189.708 C 160.721 189.102,160.783 189.068,161.079 189.511 C 161.390 189.976,161.482 189.965,161.802 189.422 C 162.004 189.080,162.461 188.800,162.819 188.800 C 163.176 188.800,163.736 188.440,164.062 188.000 C 164.388 187.560,164.537 187.440,164.393 187.733 C 164.171 188.183,164.220 188.194,164.703 187.803 C 165.270 187.343,169.945 187.250,169.895 187.700 C 169.820 188.373,170.012 188.552,170.311 188.089 C 170.606 187.633,170.657 187.646,170.661 188.178 C 170.664 188.552,170.938 188.800,171.349 188.800 C 172.379 188.800,173.178 189.188,172.940 189.572 C 172.824 189.760,173.025 189.864,173.387 189.802 C 173.750 189.739,174.008 189.878,173.963 190.112 C 173.918 190.344,174.198 190.635,174.585 190.758 C 174.972 190.881,175.289 191.210,175.289 191.491 C 175.289 191.771,175.458 192.000,175.665 192.000 C 175.873 192.000,175.943 192.160,175.822 192.356 C 175.701 192.551,175.734 192.711,175.895 192.711 C 176.514 192.711,177.336 195.397,177.182 196.917 C 177.091 197.807,177.202 198.669,177.445 198.961 C 177.690 199.255,177.716 199.467,177.509 199.467 C 177.314 199.467,177.196 199.959,177.247 200.560 C 177.298 201.162,177.158 201.724,176.937 201.809 C 176.715 201.895,176.489 202.615,176.434 203.410 C 176.370 204.332,176.467 204.773,176.700 204.629 C 176.902 204.504,177.244 204.512,177.462 204.647 C 177.679 204.781,178.472 204.937,179.224 204.993 C 179.977 205.049,180.799 205.226,181.052 205.386 C 181.567 205.714,181.744 205.759,182.756 205.822 C 183.147 205.847,183.467 206.116,183.467 206.421 C 183.467 206.726,183.616 206.883,183.798 206.771 C 183.980 206.658,184.231 206.731,184.356 206.933 C 184.480 207.135,184.731 207.208,184.913 207.096 C 185.096 206.983,185.244 207.115,185.244 207.389 C 185.244 207.662,185.676 208.083,186.204 208.323 C 186.972 208.673,187.060 208.825,186.648 209.086 C 186.247 209.339,186.310 209.413,186.933 209.417 C 187.373 209.420,187.733 209.582,187.733 209.778 C 187.733 209.973,187.973 210.133,188.267 210.133 C 188.750 210.133,188.960 210.560,188.839 211.299 C 188.814 211.451,189.034 211.668,189.328 211.780 C 189.622 211.893,189.773 212.130,189.664 212.307 C 189.555 212.483,189.716 212.878,190.022 213.184 C 190.328 213.489,190.578 213.934,190.578 214.172 C 190.578 214.410,190.858 215.159,191.200 215.836 C 192.188 217.790,191.926 225.865,190.853 226.546 C 190.497 226.772,190.496 226.835,190.844 226.839 C 191.089 226.842,191.289 227.059,191.289 227.321 C 191.289 227.684,192.053 227.802,194.470 227.812 L 197.651 227.825 200.933 224.668 C 202.739 222.932,204.338 221.511,204.486 221.511 C 204.635 221.511,205.282 221.031,205.924 220.444 C 206.566 219.858,207.277 219.378,207.502 219.378 C 207.728 219.378,208.112 219.138,208.356 218.844 C 208.599 218.551,209.081 218.311,209.428 218.311 C 209.774 218.311,210.149 218.071,210.262 217.778 C 210.374 217.484,210.872 217.244,211.367 217.244 C 211.862 217.244,212.267 217.120,212.267 216.967 C 212.267 216.815,213.082 216.375,214.078 215.989 C 215.075 215.604,216.029 215.030,216.199 214.714 C 216.496 214.161,219.481 213.467,220.910 213.619 C 221.263 213.657,221.454 213.528,221.333 213.333 C 221.212 213.138,221.283 212.978,221.490 212.978 C 221.697 212.978,221.869 213.178,221.872 213.422 C 221.875 213.697,221.977 213.731,222.139 213.511 C 222.820 212.584,224.130 212.341,228.645 212.302 C 233.218 212.262,237.031 212.884,235.695 213.451 C 235.423 213.566,235.885 213.610,236.722 213.549 C 237.560 213.488,238.329 213.574,238.432 213.741 C 238.535 213.908,239.020 214.044,239.509 214.044 C 240.097 214.044,240.311 214.185,240.140 214.460 C 239.966 214.742,240.079 214.801,240.488 214.644 C 240.863 214.500,241.171 214.613,241.296 214.939 C 241.410 215.237,241.946 215.467,242.527 215.467 C 243.114 215.467,243.517 215.641,243.467 215.874 C 243.418 216.097,243.938 216.432,244.622 216.618 C 245.306 216.803,245.946 217.060,246.044 217.189 C 246.142 217.318,246.662 217.650,247.200 217.927 C 247.738 218.204,248.178 218.605,248.178 218.818 C 248.178 219.030,248.659 219.417,249.246 219.677 C 249.834 219.937,250.230 220.288,250.125 220.457 C 249.879 220.856,251.197 221.565,251.566 221.232 C 251.721 221.092,251.750 221.149,251.632 221.357 C 251.513 221.566,251.727 221.962,252.108 222.236 C 252.489 222.510,252.800 222.852,252.800 222.995 C 252.800 223.138,253.359 223.797,254.041 224.460 C 254.724 225.123,255.177 225.771,255.049 225.899 C 254.920 226.028,255.011 226.133,255.251 226.133 C 255.490 226.133,255.588 226.293,255.467 226.489 C 255.346 226.684,255.404 226.844,255.595 226.844 C 255.787 226.844,256.054 227.346,256.188 227.958 C 256.368 228.778,256.515 228.942,256.744 228.581 C 256.978 228.212,257.057 228.282,257.061 228.863 C 257.066 229.537,257.248 229.630,258.454 229.575 C 259.217 229.540,259.767 229.391,259.677 229.244 C 259.587 229.098,259.723 228.965,259.979 228.949 C 262.723 228.781,263.643 228.849,264.043 229.250 C 264.299 229.505,264.554 229.683,264.610 229.645 C 264.665 229.607,265.313 229.689,266.050 229.827 C 267.704 230.138,268.970 229.489,271.349 227.111 C 272.278 226.182,273.215 225.422,273.429 225.422 C 273.644 225.422,273.732 225.280,273.625 225.107 C 273.518 224.934,273.765 224.705,274.173 224.598 C 274.593 224.488,274.812 224.235,274.676 224.015 C 274.542 223.799,274.644 223.670,274.907 223.725 C 275.166 223.778,275.334 223.610,275.280 223.351 C 275.226 223.089,275.354 222.987,275.571 223.120 C 275.790 223.256,276.043 223.038,276.153 222.618 C 276.260 222.209,276.489 221.962,276.663 222.069 C 276.836 222.177,276.978 222.088,276.978 221.874 C 276.978 221.659,277.778 220.696,278.756 219.733 C 279.733 218.771,280.533 217.809,280.533 217.597 C 280.533 217.384,280.933 216.840,281.422 216.387 C 281.911 215.934,282.314 215.341,282.317 215.070 C 282.321 214.665,282.375 214.662,282.623 215.052 C 282.867 215.437,282.962 215.425,283.131 214.986 C 283.245 214.689,283.147 214.366,282.913 214.269 C 282.674 214.169,282.836 213.987,283.285 213.850 C 283.723 213.717,283.993 213.466,283.886 213.293 C 283.779 213.120,283.941 212.978,284.246 212.978 C 284.551 212.978,284.800 212.808,284.800 212.601 C 284.800 212.394,284.600 212.342,284.356 212.485 C 284.111 212.628,284.191 212.424,284.533 212.033 C 284.876 211.642,285.156 211.073,285.156 210.769 C 285.156 210.465,285.476 210.133,285.867 210.030 C 286.284 209.921,286.578 209.545,286.578 209.121 C 286.578 208.723,286.762 208.283,286.988 208.144 C 287.260 207.976,287.301 208.048,287.111 208.356 C 286.921 208.664,286.962 208.735,287.234 208.567 C 287.460 208.428,287.644 207.943,287.644 207.489 C 287.644 207.036,287.879 206.470,288.166 206.232 C 288.453 205.993,288.653 205.614,288.611 205.388 C 288.568 205.162,288.733 205.018,288.978 205.067 C 289.254 205.122,289.422 204.753,289.422 204.089 C 289.422 203.482,289.595 203.061,289.823 203.111 C 290.044 203.160,290.293 202.720,290.378 202.133 C 290.463 201.547,290.683 201.013,290.866 200.948 C 291.050 200.883,291.200 200.592,291.200 200.301 C 291.200 199.705,291.839 198.973,292.629 198.663 C 292.960 198.533,292.990 198.446,292.711 198.428 C 292.163 198.393,292.113 196.978,292.660 196.978 C 292.877 196.978,292.964 196.743,292.854 196.456 C 292.743 196.169,292.792 195.848,292.963 195.743 C 293.525 195.395,294.704 192.555,294.812 191.289 C 294.870 190.604,295.061 189.943,295.236 189.819 C 295.411 189.695,295.594 188.923,295.644 188.103 C 295.693 187.284,295.914 186.433,296.133 186.213 C 296.353 185.993,296.533 184.960,296.533 183.918 C 296.533 182.683,296.696 181.960,296.999 181.843 C 297.615 181.607,297.855 174.222,297.247 174.222 C 297.022 174.222,296.963 174.416,297.114 174.667 C 297.270 174.926,297.102 174.889,296.711 174.578 C 296.321 174.267,296.153 174.230,296.308 174.489 C 296.455 174.733,296.418 174.933,296.225 174.933 C 296.032 174.933,295.793 174.653,295.694 174.311 C 295.544 173.798,295.516 173.813,295.531 174.400 C 295.541 174.791,295.510 175.231,295.463 175.378 C 295.416 175.524,295.351 175.844,295.317 176.089 C 295.284 176.333,295.064 176.493,294.828 176.444 C 294.593 176.396,294.440 176.479,294.489 176.629 C 294.538 176.780,294.146 177.369,293.619 177.938 C 293.092 178.508,292.742 179.106,292.842 179.267 C 292.941 179.429,292.774 179.656,292.469 179.773 C 292.164 179.890,291.999 180.121,292.101 180.286 C 292.203 180.451,291.962 180.760,291.566 180.972 C 291.169 181.185,290.844 181.524,290.844 181.727 C 290.844 182.389,289.859 183.165,289.657 182.663 C 289.559 182.421,289.464 182.542,289.447 182.933 C 289.429 183.324,288.829 184.204,288.113 184.889 C 287.396 185.573,286.928 185.933,287.071 185.689 C 287.214 185.444,287.161 185.244,286.954 185.244 C 286.747 185.244,286.578 185.446,286.578 185.693 C 286.578 186.379,284.097 188.800,283.393 188.800 C 283.189 188.800,283.022 189.031,283.022 189.312 C 283.022 189.594,282.838 189.939,282.612 190.078 C 282.339 190.247,282.293 190.165,282.476 189.833 C 282.627 189.558,282.371 189.750,281.908 190.260 C 281.445 190.770,280.707 191.301,280.267 191.440 C 279.827 191.579,279.467 191.842,279.467 192.024 C 279.467 192.206,279.227 192.356,278.933 192.356 C 278.640 192.356,278.400 192.596,278.400 192.889 C 278.400 193.182,278.161 193.422,277.870 193.422 C 277.578 193.422,277.140 193.742,276.895 194.133 C 276.651 194.524,276.165 194.844,275.814 194.844 C 275.464 194.844,275.084 195.089,274.969 195.388 C 274.830 195.749,274.517 195.855,274.037 195.703 C 273.472 195.523,273.363 195.598,273.535 196.048 C 273.656 196.364,273.589 196.622,273.386 196.622 C 273.182 196.622,272.776 196.862,272.483 197.156 C 272.189 197.449,271.658 197.689,271.302 197.689 C 270.945 197.689,270.558 197.939,270.441 198.245 C 270.323 198.550,270.066 198.701,269.869 198.579 C 269.672 198.458,269.511 198.537,269.511 198.756 C 269.511 198.974,269.338 199.046,269.127 198.916 C 268.916 198.785,268.507 199.016,268.218 199.428 C 267.929 199.840,267.367 200.178,266.968 200.178 C 266.569 200.178,265.772 200.456,265.195 200.797 C 264.278 201.339,264.106 201.350,263.813 200.886 C 263.545 200.462,263.476 200.516,263.472 201.156 C 263.468 201.827,263.273 201.956,262.260 201.956 C 261.516 201.956,260.975 202.160,260.849 202.489 C 260.721 202.824,260.177 203.022,259.389 203.022 C 258.698 203.022,258.133 203.182,258.133 203.378 C 258.133 203.573,257.689 203.733,257.146 203.733 C 256.603 203.733,255.825 203.967,255.417 204.252 C 255.010 204.538,254.054 204.805,253.294 204.846 C 252.533 204.887,251.719 205.067,251.484 205.246 C 250.900 205.689,249.474 205.880,246.897 205.861 C 245.462 205.851,244.588 206.013,244.317 206.340 C 244.071 206.636,243.531 206.762,242.967 206.654 C 242.319 206.530,242.106 206.601,242.279 206.882 C 242.465 207.182,240.798 207.289,235.932 207.289 C 230.893 207.289,229.332 207.184,229.328 206.844 C 229.324 206.547,229.206 206.577,228.972 206.933 C 228.679 207.381,228.571 207.388,228.306 206.977 C 228.133 206.707,227.813 206.597,227.595 206.731 C 227.376 206.866,227.200 206.751,227.200 206.472 C 227.200 206.081,226.526 205.960,224.165 205.929 C 222.069 205.902,220.890 205.721,220.353 205.345 C 219.897 205.025,218.812 204.800,217.728 204.800 C 216.713 204.800,215.827 204.637,215.761 204.439 C 215.695 204.240,215.084 204.007,214.403 203.921 C 213.723 203.834,213.110 203.597,213.042 203.393 C 212.974 203.189,212.372 203.022,211.704 203.022 C 211.036 203.022,210.489 202.853,210.489 202.646 C 210.489 202.439,210.329 202.368,210.133 202.489 C 209.938 202.610,209.778 202.560,209.778 202.379 C 209.778 202.198,209.125 201.962,208.328 201.855 C 207.530 201.748,206.690 201.426,206.461 201.139 C 206.062 200.640,204.229 199.988,203.618 200.128 C 203.457 200.165,203.416 200.048,203.527 199.868 C 203.716 199.562,202.934 199.033,202.133 198.926 C 201.193 198.801,198.756 197.470,198.756 197.083 C 198.756 196.840,198.519 196.735,198.225 196.848 C 197.922 196.964,197.601 196.807,197.476 196.481 C 197.356 196.168,197.051 195.911,196.800 195.911 C 196.549 195.911,196.251 195.671,196.138 195.378 C 196.026 195.084,195.608 194.844,195.211 194.844 C 194.814 194.844,194.489 194.724,194.489 194.576 C 194.489 194.428,194.009 194.094,193.422 193.835 C 192.836 193.575,192.356 193.136,192.356 192.859 C 192.356 192.582,192.036 192.356,191.644 192.356 C 191.253 192.356,190.933 192.214,190.933 192.041 C 190.933 191.869,190.597 191.639,190.186 191.532 C 189.775 191.425,189.545 191.166,189.674 190.957 C 189.805 190.746,189.645 190.578,189.313 190.578 C 188.985 190.578,188.096 189.938,187.337 189.156 C 186.577 188.373,185.787 187.733,185.579 187.733 C 185.372 187.733,185.301 187.573,185.422 187.378 C 185.543 187.182,185.461 187.022,185.240 187.022 C 184.758 187.022,184.210 186.475,183.358 185.144 C 183.009 184.600,182.583 184.243,182.410 184.349 C 182.105 184.538,181.477 183.203,181.618 182.667 C 181.657 182.520,181.569 182.419,181.422 182.442 C 180.646 182.565,180.267 182.330,180.267 181.727 C 180.267 181.095,179.380 180.430,178.729 180.575 C 178.568 180.610,178.532 180.484,178.650 180.293 C 178.768 180.103,178.540 179.773,178.143 179.561 C 177.747 179.349,177.422 178.861,177.422 178.476 C 177.422 178.092,177.182 177.778,176.889 177.778 C 176.587 177.778,176.356 177.459,176.356 177.046 C 176.356 176.643,176.196 176.412,176.000 176.533 C 175.804 176.654,175.644 176.414,175.644 176.000 C 175.644 175.586,175.501 175.335,175.326 175.444 C 174.969 175.664,174.427 174.641,174.537 173.956 C 174.577 173.710,174.245 173.509,173.793 173.506 C 173.136 173.501,173.081 173.433,173.511 173.156 C 173.804 172.966,173.862 172.808,173.639 172.805 C 173.415 172.802,173.132 172.400,173.010 171.911 C 172.887 171.422,172.630 171.022,172.438 171.022 C 172.246 171.022,172.089 170.782,172.089 170.489 C 172.089 170.196,171.929 169.956,171.733 169.956 C 171.538 169.956,171.378 169.727,171.378 169.448 C 171.378 169.168,171.178 168.728,170.933 168.470 C 170.689 168.211,170.436 167.600,170.372 167.111 C 170.308 166.622,169.940 165.976,169.555 165.674 C 169.070 165.295,168.932 164.912,169.106 164.430 C 169.244 164.047,169.227 163.852,169.066 163.998 C 168.403 164.599,167.344 161.768,167.405 159.556 C 167.416 159.171,167.159 158.933,166.733 158.933 C 166.192 158.933,166.044 158.684,166.044 157.768 C 166.044 157.127,165.777 156.221,165.450 155.753 C 165.012 155.128,164.988 154.980,165.361 155.193 C 165.770 155.427,165.782 155.391,165.422 155.003 C 165.178 154.740,164.978 154.076,164.978 153.529 C 164.978 152.981,164.818 152.533,164.622 152.533 C 164.427 152.533,164.264 151.853,164.261 151.022 C 164.258 150.191,164.107 149.276,163.926 148.990 C 163.712 148.652,163.746 148.284,164.020 147.945 C 164.369 147.515,164.334 147.464,163.822 147.656 C 163.213 147.884,162.936 145.937,163.113 142.667 C 163.137 142.227,163.000 141.867,162.810 141.867 C 162.593 141.867,162.601 141.610,162.832 141.179 C 163.034 140.801,163.189 140.201,163.175 139.846 C 163.152 139.252,163.128 139.256,162.882 139.885 C 162.656 140.460,162.579 140.481,162.401 140.017 C 162.284 139.713,162.368 139.285,162.588 139.066 C 162.883 138.771,162.875 138.667,162.560 138.667 C 162.325 138.667,162.133 138.497,162.133 138.290 C 162.133 138.083,162.293 138.012,162.489 138.133 C 162.684 138.254,162.844 138.184,162.844 137.977 C 162.844 137.769,162.684 137.600,162.489 137.600 C 162.002 137.600,162.019 130.602,162.506 130.300 C 162.738 130.157,162.755 129.914,162.552 129.657 C 162.372 129.430,162.285 128.924,162.358 128.533 C 162.432 128.142,162.531 127.398,162.579 126.879 C 162.627 126.360,162.789 126.011,162.938 126.103 C 163.087 126.195,163.178 125.819,163.140 125.268 C 162.964 122.739,163.202 121.296,163.822 121.134 C 164.404 120.982,164.403 120.969,163.810 120.930 C 163.311 120.898,163.249 120.751,163.518 120.247 C 163.707 119.895,163.932 118.901,164.018 118.040 C 164.104 117.180,164.355 116.415,164.576 116.341 C 164.802 116.266,164.978 115.439,164.978 114.448 C 164.978 113.212,165.136 112.628,165.511 112.484 C 166.255 112.199,166.226 109.914,165.475 109.626 C 165.162 109.506,164.782 109.609,164.629 109.855 C 164.410 110.209,164.320 110.203,164.194 109.827 C 164.102 109.550,163.942 109.712,163.810 110.216 M162.734 116.178 C 162.645 116.520,162.571 116.240,162.571 115.556 C 162.571 114.871,162.645 114.591,162.734 114.933 C 162.823 115.276,162.823 115.836,162.734 116.178 M229.010 208.328 C 228.734 208.503,228.294 208.563,228.032 208.462 C 227.280 208.174,227.472 208.000,228.533 208.005 C 229.245 208.009,229.375 208.097,229.010 208.328 M243.229 208.389 C 242.659 208.617,242.245 208.609,242.002 208.366 C 241.750 208.115,242.020 208.007,242.862 208.023 C 244.015 208.044,244.037 208.066,243.229 208.389 " stroke="none" fill="#04ccfc" fill-rule="evenodd"></path><path id="path1" d="M244.507 87.701 C 244.112 88.095,245.020 88.891,245.821 88.853 C 246.495 88.822,246.480 88.789,245.689 88.555 C 245.200 88.411,244.840 88.107,244.889 87.880 C 244.989 87.416,244.854 87.353,244.507 87.701 M254.933 88.550 C 254.933 88.798,254.683 88.870,254.311 88.728 C 253.839 88.549,253.788 88.591,254.099 88.905 C 254.376 89.184,254.708 89.207,255.123 88.975 C 255.537 88.743,255.606 88.551,255.335 88.384 C 255.114 88.247,254.933 88.322,254.933 88.550 M233.722 103.988 C 233.948 104.471,234.188 104.706,234.256 104.510 C 234.430 104.004,234.040 103.111,233.645 103.111 C 233.458 103.111,233.493 103.498,233.722 103.988 M228.109 105.096 C 227.533 105.517,227.515 105.600,228.000 105.600 C 228.319 105.600,228.686 105.429,228.815 105.221 C 229.191 104.611,228.854 104.551,228.109 105.096 M290.575 126.782 C 290.898 127.106,296.869 127.189,296.670 126.867 C 296.572 126.708,295.114 126.578,293.431 126.578 C 291.748 126.578,290.462 126.670,290.575 126.782 M304.593 126.815 C 304.076 127.331,304.396 127.648,305.070 127.287 C 305.484 127.065,307.263 126.948,309.303 127.008 C 311.239 127.065,312.748 126.991,312.657 126.844 C 312.452 126.515,304.920 126.487,304.593 126.815 M261.333 131.611 C 261.333 132.125,261.972 132.248,262.340 131.806 C 262.623 131.465,262.545 131.352,262.025 131.352 C 261.644 131.352,261.333 131.469,261.333 131.611 M237.156 147.843 C 237.156 148.034,237.409 148.288,237.719 148.407 C 238.065 148.540,238.227 148.460,238.141 148.200 C 237.964 147.669,237.156 147.376,237.156 147.843 M202.840 170.891 C 203.275 171.326,203.526 171.372,203.827 171.070 C 204.049 170.848,204.159 170.655,204.071 170.640 C 203.983 170.626,203.539 170.545,203.084 170.461 C 202.317 170.318,202.299 170.350,202.840 170.891 M244.356 175.317 C 244.778 175.564,245.177 175.564,245.600 175.317 C 246.108 175.022,245.993 174.955,244.978 174.955 C 243.963 174.955,243.848 175.022,244.356 175.317 M249.067 175.289 C 249.188 175.484,249.508 175.644,249.778 175.644 C 250.048 175.644,250.368 175.484,250.489 175.289 C 250.614 175.086,250.308 174.933,249.778 174.933 C 249.248 174.933,248.942 175.086,249.067 175.289 M212.160 178.966 C 212.059 179.228,212.120 179.668,212.294 179.943 C 212.525 180.308,212.613 180.178,212.617 179.467 C 212.623 178.405,212.448 178.214,212.160 178.966 M132.051 184.741 C 132.191 185.105,131.929 185.259,131.100 185.299 C 129.351 185.381,129.302 185.395,128.386 186.036 C 127.914 186.367,127.411 186.565,127.268 186.476 C 127.125 186.388,126.915 186.557,126.802 186.852 C 126.600 187.377,124.901 188.266,124.337 188.140 C 124.181 188.105,123.522 188.640,122.873 189.327 C 122.225 190.015,121.530 190.578,121.330 190.578 C 121.130 190.578,120.866 190.978,120.743 191.467 C 120.488 192.483,120.002 192.614,119.541 191.790 C 119.367 191.480,119.079 191.221,118.901 191.215 C 118.407 191.199,117.434 190.444,117.392 190.044 C 117.372 189.849,116.967 189.640,116.492 189.580 C 116.017 189.520,115.554 189.187,115.463 188.839 C 115.372 188.492,115.076 188.197,114.804 188.184 C 114.098 188.150,108.937 186.793,108.509 186.529 C 108.311 186.407,108.068 186.508,107.969 186.753 C 107.825 187.108,107.721 187.105,107.463 186.740 C 107.104 186.231,104.625 186.336,104.234 186.877 C 104.105 187.054,103.372 187.250,102.604 187.312 C 101.836 187.374,100.796 187.624,100.293 187.867 C 99.790 188.111,99.006 188.282,98.551 188.247 C 98.077 188.210,97.548 188.466,97.310 188.847 C 97.082 189.212,96.653 189.511,96.356 189.511 C 96.059 189.511,95.612 189.837,95.363 190.236 C 95.114 190.635,94.767 190.872,94.592 190.764 C 94.417 190.656,94.170 190.892,94.044 191.289 C 93.919 191.686,93.677 191.925,93.507 191.820 C 93.338 191.715,93.055 191.887,92.879 192.202 C 92.703 192.517,92.453 192.760,92.324 192.743 C 92.195 192.725,92.078 192.831,92.064 192.978 C 92.050 193.124,91.810 193.372,91.530 193.529 C 91.251 193.685,91.022 194.045,91.022 194.329 C 91.022 194.612,90.782 194.844,90.489 194.844 C 90.164 194.844,89.956 195.176,89.956 195.692 C 89.956 196.257,89.704 196.605,89.198 196.737 C 88.699 196.868,88.512 197.121,88.650 197.480 C 88.765 197.779,88.585 198.297,88.252 198.631 C 87.918 198.964,87.632 199.739,87.617 200.353 C 87.602 200.967,87.449 201.697,87.276 201.976 C 86.858 202.653,86.748 209.674,87.134 211.022 C 87.302 211.609,87.491 212.505,87.553 213.014 C 87.615 213.523,87.935 214.208,88.263 214.536 C 88.590 214.863,88.768 215.367,88.658 215.655 C 88.532 215.983,88.673 216.178,89.037 216.178 C 89.357 216.178,89.756 216.538,89.925 216.978 C 90.094 217.418,90.619 218.192,91.091 218.698 C 91.563 219.205,91.884 219.815,91.804 220.055 C 91.724 220.295,91.993 220.579,92.403 220.686 C 92.813 220.793,93.053 221.033,92.938 221.220 C 92.823 221.406,93.065 221.647,93.475 221.754 C 93.886 221.862,94.222 222.091,94.222 222.264 C 94.222 222.436,94.542 222.578,94.933 222.578 C 95.328 222.578,95.644 222.815,95.644 223.111 C 95.644 223.407,95.960 223.644,96.356 223.644 C 96.751 223.644,97.067 223.881,97.067 224.178 C 97.067 224.531,97.420 224.711,98.116 224.711 C 98.736 224.711,99.304 224.960,99.505 225.319 C 99.864 225.961,100.264 226.023,105.867 226.316 C 107.905 226.423,109.156 226.355,109.156 226.138 C 109.156 225.937,109.848 225.853,110.780 225.940 C 112.695 226.120,113.447 225.901,113.193 225.238 C 113.062 224.896,113.401 224.725,114.371 224.645 C 115.227 224.575,115.700 224.368,115.644 224.089 C 115.568 223.707,116.215 223.478,117.042 223.594 C 117.175 223.613,117.657 223.192,118.114 222.658 C 119.079 221.531,120.178 221.207,120.178 222.050 C 120.178 222.363,120.338 222.521,120.533 222.400 C 120.729 222.279,120.889 222.527,120.889 222.950 C 120.889 223.489,121.049 223.659,121.422 223.516 C 121.911 223.328,122.127 223.702,121.983 224.488 C 121.952 224.659,122.160 224.709,122.445 224.599 C 122.730 224.490,123.052 224.630,123.159 224.911 C 123.267 225.192,123.581 225.422,123.856 225.422 C 124.132 225.422,124.557 225.662,124.800 225.956 C 125.043 226.249,125.543 226.489,125.910 226.489 C 126.348 226.489,126.578 226.742,126.578 227.224 C 126.578 227.790,126.737 227.909,127.267 227.740 C 127.750 227.587,128.079 227.750,128.365 228.284 C 128.697 228.904,129.029 229.022,130.144 228.916 C 131.145 228.820,131.636 228.952,131.960 229.402 C 132.556 230.227,142.144 230.285,142.747 229.467 C 142.947 229.195,143.742 228.921,144.513 228.858 C 145.284 228.796,145.977 228.557,146.054 228.328 C 146.130 228.099,146.468 227.911,146.804 227.911 C 147.140 227.911,148.080 227.422,148.893 226.824 C 149.706 226.227,150.417 225.757,150.474 225.781 C 150.860 225.941,151.822 225.250,151.822 224.813 C 151.822 224.485,152.028 224.358,152.356 224.484 C 152.649 224.597,152.911 224.494,152.938 224.256 C 152.964 224.017,153.102 224.848,153.244 226.102 C 153.420 227.653,153.704 228.530,154.132 228.843 C 154.594 229.181,154.705 229.586,154.549 230.365 C 154.379 231.216,154.475 231.471,155.035 231.649 C 155.469 231.786,155.733 232.188,155.733 232.710 C 155.733 233.171,155.973 233.789,156.267 234.083 C 156.560 234.376,156.800 234.749,156.800 234.911 C 156.800 235.074,157.126 235.410,157.524 235.659 C 157.922 235.908,158.398 236.506,158.582 236.989 C 158.766 237.472,159.160 237.867,159.458 237.867 C 159.756 237.867,159.960 238.063,159.911 238.303 C 159.862 238.542,160.187 238.794,160.632 238.862 C 161.152 238.941,161.406 239.195,161.343 239.574 C 161.273 239.989,161.506 240.164,162.133 240.170 C 162.680 240.175,163.022 240.382,163.022 240.707 C 163.022 241.033,163.363 241.238,163.911 241.240 C 164.400 241.243,164.922 241.434,165.072 241.667 C 165.221 241.899,165.957 242.080,166.706 242.070 C 168.432 242.046,169.677 242.433,169.386 242.903 C 169.245 243.132,169.667 243.220,170.537 243.144 C 172.008 243.014,172.874 244.984,171.673 245.726 C 170.987 246.150,170.943 251.998,171.618 253.082 C 171.897 253.530,172.201 254.490,172.293 255.215 C 172.386 255.940,172.618 256.587,172.811 256.653 C 173.003 256.718,173.073 256.912,172.967 257.084 C 172.861 257.256,173.060 257.695,173.409 258.061 C 173.759 258.427,174.093 258.953,174.153 259.230 C 174.213 259.507,174.493 259.911,174.775 260.128 C 175.058 260.345,175.289 260.795,175.289 261.127 C 175.289 261.459,175.431 261.643,175.606 261.535 C 175.780 261.428,176.161 261.698,176.453 262.136 C 177.456 263.641,178.395 264.533,178.975 264.533 C 179.294 264.533,179.516 264.724,179.467 264.958 C 179.418 265.192,179.858 265.493,180.444 265.627 C 181.031 265.761,181.372 265.890,181.201 265.913 C 180.451 266.015,181.875 267.022,182.769 267.022 C 183.316 267.022,183.820 267.193,183.889 267.401 C 183.959 267.609,184.588 267.825,185.288 267.880 C 185.988 267.936,186.785 268.120,187.058 268.289 C 187.803 268.749,193.492 268.724,194.311 268.257 C 194.702 268.035,195.222 267.885,195.467 267.926 C 195.711 267.967,196.054 268.020,196.228 268.044 C 196.402 268.069,196.647 268.495,196.772 268.992 C 196.897 269.489,197.154 269.800,197.344 269.682 C 197.534 269.565,197.689 269.799,197.689 270.201 C 197.689 270.604,197.890 270.933,198.137 270.933 C 198.383 270.933,198.784 271.253,199.029 271.644 C 199.273 272.036,199.711 272.356,200.003 272.356 C 200.295 272.356,200.533 272.665,200.533 273.043 C 200.533 273.421,200.845 273.829,201.226 273.950 C 201.607 274.071,202.402 274.621,202.992 275.171 C 203.581 275.722,204.150 276.087,204.254 275.983 C 204.359 275.878,204.444 276.059,204.444 276.385 C 204.444 276.711,204.689 276.978,204.989 276.978 C 205.288 276.978,205.626 277.218,205.738 277.511 C 205.851 277.804,206.210 278.044,206.537 278.044 C 206.864 278.044,207.416 278.378,207.765 278.785 C 208.114 279.193,208.629 279.438,208.911 279.330 C 209.192 279.222,209.422 279.288,209.422 279.478 C 209.422 279.667,209.716 279.822,210.074 279.822 C 210.433 279.822,210.846 279.942,210.993 280.089 C 211.139 280.236,211.446 280.363,211.674 280.372 C 211.902 280.381,212.054 280.565,212.012 280.781 C 211.966 281.014,212.453 281.159,213.209 281.137 C 214.048 281.114,214.639 281.316,214.942 281.729 C 215.194 282.075,215.616 282.328,215.878 282.292 C 217.528 282.067,219.378 282.354,219.378 282.835 C 219.378 283.611,229.565 283.536,230.001 282.757 C 230.193 282.413,230.889 282.225,232.029 282.210 C 233.162 282.195,233.994 281.971,234.430 281.565 C 234.797 281.224,235.398 281.002,235.767 281.073 C 236.135 281.144,236.642 281.012,236.893 280.779 C 237.145 280.546,237.506 280.329,237.697 280.296 C 238.696 280.126,239.130 279.975,239.309 279.735 C 239.418 279.589,239.962 279.432,240.519 279.386 C 241.141 279.335,241.595 279.060,241.696 278.673 C 241.847 278.099,242.229 277.891,242.933 278.002 C 243.080 278.025,243.200 277.804,243.200 277.511 C 243.200 277.206,243.520 276.978,243.949 276.978 C 244.361 276.978,245.005 276.587,245.380 276.110 C 245.756 275.633,246.379 275.142,246.765 275.019 C 247.151 274.897,247.467 274.567,247.467 274.287 C 247.467 274.007,247.667 273.818,247.911 273.867 C 248.156 273.916,248.333 273.676,248.306 273.333 C 248.279 272.991,248.455 272.711,248.697 272.711 C 248.940 272.711,249.503 272.235,249.949 271.653 C 250.396 271.070,250.900 270.680,251.069 270.785 C 251.239 270.889,251.378 270.646,251.378 270.243 C 251.378 269.841,251.542 269.511,251.742 269.511 C 251.943 269.511,252.259 269.110,252.445 268.620 C 252.632 268.129,252.988 267.769,253.237 267.820 C 253.505 267.874,253.672 267.585,253.646 267.111 C 253.623 266.671,253.715 266.311,253.851 266.311 C 253.986 266.311,254.541 265.351,255.082 264.178 C 255.624 263.004,256.212 262.044,256.389 262.044 C 256.566 262.044,256.711 261.559,256.711 260.967 C 256.711 260.363,256.933 259.803,257.217 259.695 C 257.957 259.411,258.187 258.542,257.741 257.709 C 257.443 257.153,257.453 257.043,257.780 257.246 C 258.085 257.434,258.143 257.300,257.979 256.786 C 257.853 256.386,257.915 255.957,258.119 255.831 C 258.322 255.705,258.489 254.412,258.489 252.957 C 258.489 250.117,258.528 250.070,260.711 250.293 C 261.053 250.327,261.333 250.186,261.333 249.978 C 261.333 249.770,261.653 249.600,262.044 249.600 C 262.436 249.600,262.756 249.440,262.756 249.244 C 262.756 249.049,262.988 248.889,263.271 248.889 C 263.555 248.889,263.950 248.609,264.149 248.267 C 264.349 247.924,264.517 247.784,264.523 247.955 C 264.542 248.524,265.600 247.388,265.600 246.798 C 265.600 246.477,265.894 246.032,266.254 245.807 C 266.635 245.569,266.877 245.050,266.835 244.566 C 266.794 244.108,266.996 243.463,267.282 243.134 C 267.569 242.804,267.705 242.375,267.585 242.180 C 267.464 241.986,267.538 241.721,267.748 241.591 C 268.190 241.317,267.907 239.703,267.169 238.287 C 266.895 237.763,266.670 237.107,266.669 236.830 C 266.668 236.553,266.430 236.073,266.142 235.763 C 265.853 235.453,265.213 234.767,264.719 234.238 C 264.226 233.709,263.822 233.100,263.822 232.884 C 263.822 232.668,263.670 232.585,263.485 232.700 C 263.299 232.815,262.973 232.584,262.761 232.188 C 262.446 231.600,262.020 231.467,260.450 231.467 C 258.995 231.467,258.433 231.315,258.151 230.844 C 257.798 230.254,257.752 230.256,257.277 230.868 C 256.548 231.808,254.312 231.943,253.848 231.076 C 253.649 230.704,253.591 230.400,253.720 230.400 C 253.849 230.400,253.295 229.779,252.488 229.019 C 251.682 228.260,251.022 227.403,251.022 227.115 C 251.022 226.827,250.511 226.169,249.887 225.652 C 249.263 225.134,248.874 224.711,249.024 224.711 C 249.173 224.711,249.055 224.471,248.762 224.178 C 248.469 223.884,247.988 223.644,247.694 223.644 C 247.400 223.644,247.060 223.332,246.938 222.950 C 246.817 222.567,246.167 222.055,245.494 221.812 C 244.820 221.569,244.177 221.079,244.065 220.724 C 243.952 220.369,243.740 220.153,243.593 220.243 C 243.447 220.334,243.066 220.104,242.748 219.732 C 242.417 219.345,241.857 219.116,241.440 219.197 C 241.039 219.274,240.711 219.203,240.711 219.040 C 240.711 218.877,240.311 218.643,239.822 218.521 C 239.333 218.398,238.933 218.061,238.933 217.771 C 238.933 217.406,238.551 217.244,237.689 217.244 C 236.907 217.244,236.444 217.073,236.444 216.784 C 236.444 216.505,235.922 216.288,235.122 216.234 C 234.395 216.185,233.677 215.952,233.527 215.717 C 233.378 215.482,233.253 215.420,233.250 215.581 C 233.247 215.742,232.993 215.622,232.686 215.314 C 232.035 214.664,231.601 214.606,231.278 215.128 C 231.120 215.384,230.892 215.372,230.553 215.090 C 230.252 214.841,229.430 214.757,228.460 214.875 C 227.581 214.983,226.783 214.944,226.687 214.789 C 226.449 214.403,222.322 214.306,222.091 214.681 C 221.988 214.846,220.760 214.959,219.361 214.931 C 217.249 214.889,216.748 214.990,216.412 215.529 C 216.189 215.886,215.603 216.178,215.109 216.178 C 214.616 216.178,213.615 216.498,212.885 216.889 C 212.155 217.280,211.318 217.600,211.024 217.600 C 210.729 217.600,210.489 217.760,210.489 217.956 C 210.489 218.151,210.266 218.311,209.994 218.311 C 209.721 218.311,209.406 218.551,209.294 218.844 C 209.181 219.138,208.884 219.383,208.633 219.390 C 208.383 219.397,206.180 221.397,203.738 223.835 C 199.872 227.695,199.149 228.267,198.138 228.267 C 197.500 228.267,196.978 228.434,196.978 228.638 C 196.978 230.321,193.616 231.113,191.356 229.963 C 190.720 229.640,190.375 229.645,189.830 229.985 C 188.805 230.625,188.264 230.107,189.153 229.336 C 190.088 228.525,190.216 220.800,189.294 220.800 C 188.970 220.800,188.800 220.387,188.800 219.599 C 188.800 218.939,188.582 218.217,188.316 217.996 C 188.050 217.775,187.877 217.178,187.933 216.668 C 188.005 216.012,187.843 215.691,187.375 215.569 C 186.949 215.458,186.792 215.199,186.931 214.837 C 187.089 214.425,186.990 214.336,186.560 214.501 C 186.133 214.665,185.813 214.386,185.376 213.464 C 185.046 212.769,184.562 212.119,184.300 212.018 C 184.037 211.917,183.822 211.642,183.822 211.406 C 183.822 211.170,183.269 210.760,182.593 210.495 C 181.916 210.229,181.281 209.799,181.182 209.539 C 181.082 209.279,180.614 209.067,180.142 209.067 C 179.587 209.067,179.218 208.819,179.100 208.368 C 178.955 207.811,178.659 207.689,177.649 207.769 C 176.825 207.833,176.315 207.697,176.193 207.378 C 176.090 207.108,175.724 206.916,175.380 206.952 C 174.288 207.063,174.187 206.952,174.641 206.133 C 174.885 205.693,175.050 205.213,175.009 205.067 C 174.967 204.920,175.062 204.800,175.220 204.800 C 175.378 204.800,175.528 203.520,175.555 201.956 C 175.592 199.800,175.489 199.111,175.130 199.111 C 174.870 199.111,174.555 198.567,174.430 197.901 C 174.305 197.235,173.967 196.600,173.679 196.490 C 173.391 196.379,173.156 195.959,173.156 195.556 C 173.156 195.152,172.910 194.728,172.609 194.612 C 172.309 194.497,171.826 193.944,171.536 193.384 C 171.246 192.824,170.605 192.264,170.110 192.140 C 169.616 192.016,169.296 191.830,169.400 191.726 C 169.739 191.387,167.770 190.578,166.608 190.578 C 165.985 190.578,165.286 190.388,165.054 190.156 C 164.410 189.513,162.105 189.448,161.189 190.048 C 160.745 190.339,159.920 190.578,159.356 190.578 C 158.217 190.578,156.393 191.382,155.735 192.175 C 155.294 192.708,153.639 191.921,153.611 191.165 C 153.597 190.769,151.484 188.800,151.074 188.800 C 150.899 188.800,150.756 188.657,150.756 188.483 C 150.756 188.309,150.367 188.068,149.892 187.949 C 149.416 187.830,148.747 187.453,148.404 187.111 C 148.062 186.769,147.610 186.467,147.402 186.441 C 147.193 186.415,146.822 186.375,146.578 186.352 C 146.333 186.330,146.173 186.111,146.222 185.867 C 146.310 185.429,146.006 185.357,143.744 185.282 C 142.875 185.254,142.650 185.115,142.807 184.704 C 142.979 184.256,142.857 184.224,142.085 184.518 C 141.574 184.712,141.156 184.741,141.156 184.581 C 141.156 184.422,139.064 184.279,136.507 184.264 C 132.633 184.241,131.890 184.321,132.051 184.741 " stroke="none" fill="#9cfcfc" fill-rule="evenodd"></path><path id="path2" d="M249.244 73.625 C 249.244 73.835,249.004 74.246,248.711 74.540 C 248.418 74.833,248.178 75.670,248.178 76.399 C 248.178 78.282,247.709 78.578,244.729 78.578 L 242.133 78.578 242.133 79.644 C 242.133 80.545,242.272 80.711,243.022 80.711 C 243.572 80.711,243.911 80.913,243.911 81.240 C 243.911 81.530,244.471 82.002,245.156 82.288 C 246.583 82.885,246.685 83.279,245.689 84.349 C 245.236 84.835,244.978 85.603,244.978 86.467 C 244.978 87.212,244.973 87.942,244.967 88.089 C 244.961 88.236,245.356 88.406,245.846 88.467 C 246.729 88.578,247.057 88.392,248.712 86.844 C 249.582 86.031,251.022 85.754,251.022 86.400 C 251.022 86.596,251.245 86.756,251.518 86.756 C 251.790 86.756,252.105 86.996,252.217 87.289 C 252.330 87.582,252.599 87.822,252.814 87.822 C 253.030 87.822,253.446 88.062,253.740 88.356 C 254.361 88.977,254.933 89.052,254.933 88.512 C 254.933 88.305,255.093 88.235,255.289 88.356 C 255.863 88.710,255.702 86.509,255.111 85.917 C 254.818 85.624,254.578 84.826,254.578 84.144 C 254.578 83.462,254.378 82.831,254.133 82.742 C 253.889 82.653,254.289 82.462,255.022 82.317 C 255.810 82.162,256.356 81.849,256.356 81.552 C 256.356 81.275,256.756 80.897,257.244 80.711 C 259.475 79.863,258.405 78.578,255.467 78.578 C 252.982 78.578,252.800 78.526,252.800 77.819 C 252.800 77.402,252.487 76.790,252.104 76.458 C 251.696 76.103,251.372 75.315,251.320 74.549 C 251.236 73.292,249.244 72.406,249.244 73.625 M191.505 87.713 C 191.200 88.262,190.850 88.984,190.727 89.317 C 190.560 89.770,189.998 89.949,188.496 90.028 C 186.324 90.142,185.892 90.681,187.099 91.775 C 187.448 92.091,187.733 92.531,187.733 92.753 C 187.733 92.974,188.133 93.156,188.622 93.156 C 189.499 93.156,189.958 94.354,189.189 94.637 C 188.864 94.757,188.688 95.863,188.761 97.333 C 188.800 98.131,190.222 98.563,190.222 97.778 C 190.222 97.582,190.542 97.422,190.933 97.422 C 191.328 97.422,191.644 97.185,191.644 96.889 C 191.644 96.555,191.981 96.356,192.544 96.356 C 193.040 96.356,193.537 96.596,193.649 96.889 C 193.762 97.182,194.147 97.422,194.506 97.422 C 194.865 97.422,195.257 97.582,195.378 97.778 C 195.783 98.434,196.607 98.142,196.827 97.264 C 196.961 96.728,196.827 96.083,196.478 95.585 C 195.696 94.468,195.736 93.156,196.551 93.156 C 198.998 93.156,198.641 90.027,196.178 89.885 L 194.311 89.778 194.133 88.356 C 193.898 86.476,192.395 86.108,191.505 87.713 M229.053 96.220 C 228.816 96.474,228.622 97.168,228.622 97.763 C 228.622 98.832,227.863 99.274,227.378 98.489 C 227.257 98.293,226.918 98.133,226.625 98.133 C 226.331 98.133,226.180 98.277,226.288 98.452 C 226.396 98.627,226.246 98.862,225.954 98.974 C 224.969 99.352,225.712 101.689,226.817 101.689 C 227.120 101.689,227.175 102.144,227.007 103.264 C 226.701 105.310,227.004 105.811,228.109 105.086 C 228.573 104.782,229.185 104.533,229.469 104.533 C 229.753 104.533,230.066 104.333,230.165 104.089 C 230.308 103.733,230.349 103.733,230.372 104.089 C 230.387 104.333,230.742 104.533,231.161 104.533 C 231.579 104.533,232.103 104.782,232.326 105.086 C 232.840 105.790,233.956 105.400,233.956 104.516 C 233.956 104.158,233.796 103.765,233.600 103.644 C 232.906 103.215,233.228 101.818,234.133 101.333 C 235.013 100.862,235.263 99.885,234.806 98.696 C 234.572 98.085,233.244 97.909,233.244 98.489 C 233.244 98.684,232.924 98.844,232.533 98.844 C 231.960 98.844,231.822 98.607,231.822 97.621 C 231.822 96.948,231.653 96.293,231.446 96.165 C 230.741 95.729,229.485 95.758,229.053 96.220 M205.244 109.747 C 204.987 109.851,204.800 110.558,204.800 111.425 C 204.800 112.250,204.649 113.076,204.464 113.262 C 204.279 113.448,204.033 114.147,203.915 114.815 C 203.597 116.633,203.623 116.622,199.505 116.622 C 197.398 116.622,195.578 116.718,195.461 116.835 C 195.188 117.108,195.928 118.756,196.324 118.756 C 196.488 118.756,196.622 118.996,196.622 119.289 C 196.622 119.582,196.799 119.822,197.015 119.822 C 197.232 119.822,197.884 120.222,198.465 120.711 C 199.046 121.200,199.732 121.600,199.989 121.600 C 200.694 121.600,200.820 122.287,200.510 124.444 C 200.356 125.520,200.218 126.650,200.204 126.955 C 200.189 127.261,199.898 127.821,199.556 128.200 C 198.685 129.164,198.641 129.919,199.413 130.618 C 200.005 131.154,200.124 131.160,200.526 130.676 C 200.773 130.377,201.276 130.133,201.644 130.133 C 202.011 130.133,202.311 129.973,202.311 129.778 C 202.311 129.582,202.551 129.422,202.844 129.422 C 203.138 129.422,203.378 129.288,203.378 129.124 C 203.378 128.960,203.778 128.643,204.267 128.420 C 204.756 128.197,205.156 127.772,205.156 127.474 C 205.156 126.626,207.367 126.762,207.917 127.644 C 208.162 128.036,208.583 128.356,208.854 128.356 C 209.125 128.356,209.861 128.836,210.489 129.422 C 211.117 130.009,211.943 130.489,212.325 130.489 C 212.707 130.489,212.938 130.622,212.837 130.784 C 212.737 130.946,213.008 131.047,213.439 131.007 C 213.910 130.965,214.170 130.741,214.091 130.446 C 214.019 130.176,213.875 129.236,213.770 128.356 C 213.660 127.428,213.326 126.575,212.974 126.326 C 211.729 125.445,211.741 121.600,212.989 121.600 C 213.344 121.600,214.110 121.200,214.691 120.711 C 215.272 120.222,215.924 119.822,216.140 119.822 C 216.356 119.822,216.533 119.582,216.533 119.289 C 216.533 118.996,216.773 118.756,217.067 118.756 C 217.422 118.756,217.600 118.400,217.600 117.689 L 217.600 116.622 213.511 116.622 L 209.422 116.622 209.422 115.189 C 209.422 114.243,209.241 113.686,208.889 113.551 C 208.525 113.411,208.356 112.842,208.356 111.763 C 208.356 110.798,208.217 110.266,208.000 110.400 C 207.804 110.521,207.644 110.404,207.644 110.141 C 207.644 109.660,206.094 109.406,205.244 109.747 M256.705 119.123 C 256.513 119.482,256.356 120.346,256.356 121.043 L 256.356 122.311 254.595 122.311 C 252.601 122.311,251.022 122.895,251.022 123.634 C 251.022 123.907,251.182 124.032,251.378 123.911 C 251.573 123.790,251.733 123.905,251.733 124.167 C 251.733 124.664,252.952 125.867,253.455 125.867 C 254.260 125.867,254.683 127.608,254.096 128.505 C 253.484 129.439,253.339 130.773,253.783 131.378 C 254.143 131.868,254.933 131.990,254.933 131.556 C 254.933 131.360,255.333 131.200,255.822 131.200 C 256.311 131.200,256.671 131.036,256.622 130.835 C 256.356 129.744,258.437 129.262,259.316 130.211 C 260.701 131.705,262.546 131.711,262.689 130.222 C 262.750 129.587,262.649 129.067,262.463 129.067 C 262.277 129.067,262.053 128.572,261.964 127.968 C 261.795 126.816,262.405 125.867,263.314 125.867 C 263.594 125.867,263.822 125.645,263.822 125.375 C 263.822 125.104,264.142 124.799,264.533 124.697 C 266.746 124.118,264.579 122.311,261.672 122.311 L 259.911 122.311 259.906 120.978 C 259.896 118.720,257.625 117.403,256.705 119.123 M300.978 119.111 C 301.099 119.307,300.868 119.467,300.465 119.467 C 300.063 119.467,299.733 119.682,299.733 119.946 C 299.733 120.209,299.413 120.793,299.022 121.244 C 298.611 121.719,298.311 122.575,298.311 123.275 C 298.311 123.941,298.168 124.398,297.993 124.290 C 297.590 124.041,297.244 124.922,297.244 126.201 L 297.244 127.189 294.133 127.070 C 292.422 127.004,290.662 126.848,290.222 126.723 C 289.734 126.584,289.422 126.650,289.422 126.892 C 289.422 127.110,289.173 127.289,288.867 127.289 C 287.873 127.289,288.336 129.928,289.355 130.072 C 289.807 130.136,290.264 130.416,290.371 130.694 C 290.478 130.972,290.749 131.200,290.975 131.200 C 291.201 131.200,291.816 131.600,292.344 132.089 C 292.871 132.578,293.549 132.978,293.851 132.978 C 294.153 132.978,294.416 133.258,294.434 133.600 C 294.535 135.410,294.280 137.059,293.832 137.508 C 293.554 137.785,293.418 138.160,293.528 138.339 C 293.639 138.519,293.481 139.021,293.176 139.456 C 291.464 141.900,293.808 143.929,295.756 141.689 C 296.181 141.200,296.734 140.800,296.986 140.800 C 297.237 140.800,297.674 140.480,297.956 140.089 C 298.237 139.698,298.653 139.378,298.879 139.378 C 299.106 139.378,299.490 139.138,299.733 138.844 C 299.977 138.551,300.459 138.311,300.805 138.311 C 301.152 138.311,301.527 138.551,301.640 138.844 C 301.752 139.138,302.169 139.378,302.567 139.378 C 302.964 139.378,303.289 139.598,303.289 139.868 C 303.289 140.138,303.775 140.560,304.370 140.806 C 304.964 141.052,305.656 141.547,305.907 141.906 C 306.708 143.048,308.776 142.960,308.913 141.778 C 308.974 141.240,308.854 140.800,308.646 140.800 C 308.437 140.800,308.267 140.160,308.267 139.378 C 308.267 138.351,308.119 137.956,307.733 137.956 C 307.359 137.956,307.200 137.577,307.200 136.686 C 307.200 135.987,306.947 135.163,306.638 134.854 C 305.998 134.214,307.824 132.269,309.067 132.268 C 309.409 132.267,309.689 132.027,309.689 131.733 C 309.689 131.440,309.916 131.200,310.193 131.200 C 310.470 131.200,310.750 131.065,310.815 130.900 C 310.880 130.734,311.401 130.374,311.973 130.100 C 313.107 129.555,313.653 127.761,312.839 127.258 C 312.177 126.849,305.812 126.890,305.031 127.308 C 304.449 127.619,304.356 127.543,304.356 126.757 C 304.356 126.255,304.116 125.753,303.824 125.640 C 303.532 125.528,303.381 125.293,303.490 125.118 C 303.598 124.943,303.517 124.800,303.310 124.800 C 303.103 124.800,302.933 124.160,302.933 123.378 C 302.933 122.351,302.785 121.956,302.400 121.956 C 302.048 121.956,301.867 121.603,301.867 120.918 C 301.867 119.648,301.549 118.756,301.097 118.756 C 300.910 118.756,300.857 118.916,300.978 119.111 M212.000 146.311 C 211.560 146.990,211.200 147.788,211.200 148.084 C 211.200 148.499,210.754 148.622,209.244 148.622 C 207.332 148.622,207.289 148.645,207.289 149.634 C 207.289 150.552,208.197 151.822,208.853 151.822 C 209.669 151.822,210.216 152.928,209.617 153.365 C 208.557 154.141,208.998 156.594,210.222 156.735 C 210.760 156.797,211.200 156.677,211.200 156.468 C 211.200 156.260,211.371 156.089,211.581 156.089 C 211.790 156.089,212.202 155.849,212.495 155.556 C 213.222 154.828,213.513 154.879,214.545 155.911 C 215.984 157.350,217.600 157.156,217.600 155.544 C 217.600 154.756,217.401 154.213,217.067 154.084 C 216.195 153.750,216.458 152.636,217.600 151.822 C 218.187 151.404,218.678 151.194,218.692 151.354 C 218.741 151.924,219.328 150.207,219.353 149.422 C 219.376 148.694,219.215 148.622,217.575 148.622 C 215.470 148.622,214.756 148.083,214.756 146.493 C 214.756 145.842,214.608 145.471,214.400 145.600 C 214.204 145.721,214.044 145.650,214.044 145.443 C 214.044 144.604,212.749 145.154,212.000 146.311 M233.956 146.667 C 233.956 147.131,233.574 147.339,232.859 147.262 C 232.580 147.232,232.533 148.195,232.746 149.600 C 232.990 151.210,237.156 151.462,237.156 149.867 C 237.156 149.261,237.354 148.974,237.778 148.966 C 238.370 148.956,238.370 148.933,237.778 148.483 C 237.436 148.223,237.156 147.828,237.156 147.605 C 237.156 147.382,236.916 147.200,236.622 147.200 C 236.329 147.200,236.089 146.960,236.089 146.667 C 236.089 146.311,235.733 146.133,235.022 146.133 C 234.311 146.133,233.956 146.311,233.956 146.667 M196.444 148.267 C 196.324 148.462,195.914 148.622,195.535 148.622 C 194.946 148.622,194.844 148.877,194.844 150.359 C 194.844 151.796,194.722 152.127,194.133 152.281 C 193.553 152.432,193.422 152.766,193.422 154.089 L 193.422 155.711 189.071 155.811 C 185.368 155.896,184.703 155.998,184.608 156.495 C 184.494 157.092,185.953 158.933,186.540 158.933 C 186.719 158.933,187.096 159.253,187.378 159.644 C 187.660 160.036,188.089 160.356,188.331 160.356 C 189.915 160.356,191.436 164.572,190.044 165.106 C 189.692 165.241,189.511 165.798,189.511 166.744 C 189.511 167.533,189.369 168.178,189.196 168.178 C 188.729 168.178,188.511 170.236,188.934 170.658 C 189.401 171.126,190.578 171.132,190.578 170.667 C 190.578 170.471,190.818 170.311,191.111 170.311 C 191.404 170.311,191.644 170.071,191.644 169.778 C 191.644 169.484,191.884 169.244,192.178 169.244 C 192.471 169.244,192.711 169.084,192.711 168.889 C 192.711 168.693,192.956 168.533,193.256 168.533 C 193.556 168.533,194.361 167.973,195.046 167.289 C 196.395 165.940,196.978 165.731,196.978 166.596 C 196.978 166.900,197.458 167.315,198.044 167.520 C 198.631 167.724,199.111 168.036,199.111 168.213 C 199.111 168.389,199.351 168.533,199.644 168.533 C 199.938 168.533,200.178 168.693,200.178 168.889 C 200.178 169.084,200.418 169.244,200.711 169.244 C 201.004 169.244,201.244 169.484,201.244 169.778 C 201.244 170.113,201.583 170.311,202.154 170.311 C 202.788 170.311,202.983 170.446,202.797 170.756 C 202.584 171.110,202.641 171.111,203.076 170.759 C 203.376 170.516,203.726 170.423,203.855 170.551 C 203.984 170.680,204.089 170.039,204.089 169.126 C 204.089 168.213,203.929 167.467,203.733 167.467 C 203.538 167.467,203.378 166.827,203.378 166.044 C 203.378 165.017,203.230 164.622,202.844 164.622 C 202.472 164.622,202.311 164.247,202.311 163.378 C 202.311 162.693,202.460 162.133,202.643 162.133 C 202.825 162.133,203.076 161.813,203.200 161.422 C 203.324 161.031,203.713 160.711,204.063 160.711 C 204.414 160.711,205.001 160.311,205.368 159.822 C 205.735 159.333,206.299 158.933,206.621 158.933 C 207.326 158.933,208.356 157.463,208.356 156.457 C 208.356 155.769,208.143 155.733,204.096 155.733 C 199.339 155.733,199.653 155.922,199.362 152.889 C 199.286 152.101,199.055 151.644,198.732 151.644 C 198.394 151.644,198.183 151.167,198.107 150.227 C 197.953 148.337,197.055 147.278,196.444 148.267 M269.728 151.733 C 269.609 152.467,269.485 153.260,269.452 153.495 C 269.419 153.731,269.259 153.842,269.096 153.741 C 268.933 153.640,268.800 153.719,268.800 153.917 C 268.800 154.114,267.880 154.324,266.756 154.382 C 264.506 154.500,263.369 156.207,265.218 156.690 C 265.624 156.796,265.956 157.104,265.956 157.375 C 265.956 157.662,266.325 157.867,266.844 157.867 C 267.556 157.867,267.733 158.044,267.733 158.756 C 267.733 159.309,267.532 159.644,267.200 159.644 C 266.907 159.644,266.654 159.764,266.639 159.911 C 266.625 160.058,266.547 160.498,266.466 160.889 C 266.220 162.092,267.026 163.200,268.149 163.200 C 268.703 163.200,269.156 163.051,269.156 162.868 C 269.156 162.686,269.486 162.432,269.890 162.304 C 270.293 162.176,270.765 161.725,270.938 161.302 L 271.253 160.533 271.490 161.333 C 271.627 161.796,272.010 162.133,272.397 162.133 C 272.765 162.133,273.067 162.373,273.067 162.667 C 273.067 162.999,273.402 163.200,273.956 163.200 C 274.444 163.200,274.844 163.360,274.844 163.556 C 274.844 164.260,275.833 163.893,276.043 163.111 C 276.401 161.774,276.294 161.067,275.733 161.067 C 275.338 161.067,275.200 160.652,275.200 159.467 C 275.200 158.281,275.338 157.867,275.733 157.867 C 276.027 157.867,276.267 157.710,276.267 157.518 C 276.267 157.326,276.667 157.069,277.156 156.946 C 277.885 156.763,278.044 156.507,278.044 155.517 L 278.044 154.311 275.733 154.311 L 273.422 154.311 273.422 152.868 C 273.422 152.074,273.280 151.512,273.107 151.619 C 272.934 151.727,272.709 151.496,272.607 151.107 C 272.229 149.660,269.985 150.148,269.728 151.733 M246.637 165.215 C 246.507 165.345,246.400 165.672,246.400 165.942 C 246.400 166.919,244.708 168.178,243.394 168.178 C 242.230 168.178,242.133 168.260,242.133 169.244 C 242.133 169.831,242.305 170.311,242.514 170.311 C 243.777 170.311,244.232 172.380,243.394 174.311 C 243.027 175.158,245.724 175.203,246.562 174.365 C 247.162 173.765,247.660 173.968,248.826 175.289 C 249.155 175.661,249.220 175.673,249.043 175.330 C 248.844 174.946,249.040 174.875,249.938 175.007 C 251.323 175.210,251.687 174.606,250.876 173.448 C 250.054 172.274,250.163 171.832,251.608 170.509 C 253.262 168.994,253.060 168.178,251.033 168.178 C 250.245 168.178,249.600 168.018,249.600 167.822 C 249.600 167.627,249.360 167.467,249.067 167.467 C 248.694 167.467,248.533 167.091,248.533 166.222 C 248.533 165.010,247.429 164.423,246.637 165.215 M215.467 177.244 C 215.467 178.044,215.324 178.133,214.044 178.133 C 212.212 178.133,211.961 179.714,213.600 180.937 C 214.328 181.480,214.424 181.669,213.977 181.678 C 213.145 181.693,212.831 182.328,213.346 182.949 C 213.872 183.583,215.685 183.633,215.970 183.022 C 216.136 182.667,216.219 182.667,216.385 183.022 C 216.875 184.071,219.484 183.555,219.264 182.453 C 219.022 181.243,219.330 179.839,219.776 180.115 C 220.301 180.440,220.558 179.232,220.085 178.662 C 219.844 178.371,219.203 178.133,218.662 178.133 C 217.908 178.133,217.625 177.925,217.454 177.244 C 217.291 176.595,216.993 176.356,216.349 176.356 C 215.645 176.356,215.467 176.535,215.467 177.244 M264.089 177.451 C 263.747 177.650,263.467 178.125,263.467 178.507 C 263.467 179.009,263.222 179.200,262.578 179.200 C 261.556 179.200,261.237 181.182,262.200 181.552 C 262.481 181.660,262.634 181.947,262.541 182.190 C 262.235 182.986,263.056 184.533,263.784 184.533 C 264.163 184.533,264.536 184.347,264.612 184.120 C 264.813 183.517,265.956 183.441,265.956 184.031 C 265.956 184.307,266.207 184.533,266.514 184.533 C 267.412 184.533,268.089 183.606,268.089 182.376 C 268.089 181.736,268.341 181.050,268.662 180.815 C 269.360 180.305,268.501 179.200,267.406 179.200 C 267.058 179.200,266.405 178.720,265.956 178.133 C 265.053 176.955,264.983 176.930,264.089 177.451 " stroke="none" fill="#9c9c9c" fill-rule="evenodd"></path><path id="path3" d="M162.571 115.556 C 162.571 116.240,162.645 116.520,162.734 116.178 C 162.823 115.836,162.823 115.276,162.734 114.933 C 162.645 114.591,162.571 114.871,162.571 115.556 M163.911 118.779 C 163.911 119.183,163.745 119.823,163.543 120.201 C 163.253 120.742,163.291 120.889,163.721 120.889 C 164.121 120.889,164.267 120.508,164.267 119.467 C 164.267 118.684,164.187 118.044,164.089 118.044 C 163.991 118.044,163.911 118.375,163.911 118.779 M154.533 120.106 C 154.388 120.341,154.343 120.533,154.433 120.533 C 154.523 120.533,154.132 121.030,153.565 121.638 C 152.998 122.245,152.533 122.915,152.533 123.127 C 152.533 123.339,152.853 123.168,153.244 122.749 C 153.636 122.329,153.956 121.876,153.956 121.743 C 153.956 121.610,154.218 121.309,154.538 121.075 C 154.858 120.841,155.047 120.431,154.958 120.164 C 154.837 119.800,154.731 119.786,154.533 120.106 M162.607 126.506 C 162.589 126.839,162.493 127.779,162.394 128.595 C 162.259 129.720,162.328 130.036,162.678 129.902 C 162.983 129.785,163.120 129.136,163.079 128.000 C 163.019 126.341,162.677 125.259,162.607 126.506 M147.793 131.081 C 147.453 131.421,147.500 131.911,147.873 131.911 C 148.048 131.911,148.283 131.671,148.395 131.378 C 148.603 130.836,148.224 130.650,147.793 131.081 M146.698 133.159 C 146.167 133.561,146.093 133.841,146.358 134.436 C 146.674 135.144,146.726 135.107,147.094 133.910 C 147.311 133.202,147.464 132.627,147.433 132.634 C 147.403 132.640,147.072 132.876,146.698 133.159 M162.133 138.322 C 162.133 138.512,162.313 138.667,162.532 138.667 C 162.817 138.667,162.823 138.798,162.553 139.123 C 162.313 139.412,162.295 139.770,162.504 140.101 C 162.685 140.388,162.838 140.462,162.844 140.267 C 162.850 140.071,162.945 139.573,163.056 139.160 C 163.188 138.666,163.065 138.335,162.695 138.194 C 162.386 138.075,162.133 138.133,162.133 138.322 M142.172 144.089 C 141.948 146.052,141.979 146.844,142.278 146.844 C 142.470 146.844,142.575 146.484,142.511 146.044 C 142.447 145.604,142.636 145.033,142.931 144.774 C 143.332 144.422,143.339 144.369,142.962 144.565 C 142.592 144.757,142.518 144.669,142.684 144.236 C 142.809 143.911,142.756 143.644,142.567 143.644 C 142.377 143.644,142.199 143.844,142.172 144.089 M163.200 147.426 C 163.200 147.691,163.428 147.801,163.733 147.684 C 164.027 147.572,164.267 147.363,164.267 147.221 C 164.267 147.079,164.027 146.963,163.733 146.963 C 163.440 146.963,163.200 147.171,163.200 147.426 M140.652 152.051 C 140.529 152.372,140.511 152.719,140.614 152.821 C 140.716 152.924,140.800 152.811,140.800 152.572 C 140.800 152.332,140.933 152.218,141.096 152.319 C 141.259 152.420,141.393 152.269,141.393 151.984 C 141.393 151.286,140.929 151.328,140.652 152.051 M164.267 152.000 C 164.267 152.293,164.427 152.533,164.622 152.533 C 164.818 152.533,164.978 152.293,164.978 152.000 C 164.978 151.707,164.818 151.467,164.622 151.467 C 164.427 151.467,164.267 151.707,164.267 152.000 M165.112 154.754 C 165.257 155.661,166.022 156.695,166.034 156.000 C 166.040 155.658,165.875 155.378,165.668 155.378 C 165.461 155.378,165.383 155.229,165.496 155.047 C 165.608 154.865,165.552 154.624,165.370 154.512 C 165.189 154.400,165.072 154.508,165.112 154.754 M166.044 158.387 C 166.044 158.696,166.353 158.933,166.756 158.933 C 167.147 158.933,167.467 158.859,167.467 158.768 C 167.467 158.677,167.147 158.432,166.756 158.222 C 166.188 157.918,166.044 157.952,166.044 158.387 M139.258 158.844 C 139.014 159.244,139.196 162.070,139.483 162.357 C 139.621 162.495,139.753 162.021,139.778 161.304 C 139.833 159.691,139.855 159.572,140.204 159.022 C 140.384 158.739,140.293 158.578,139.953 158.578 C 139.660 158.578,139.347 158.698,139.258 158.844 M167.650 161.412 C 167.342 161.911,168.533 164.309,168.959 164.046 C 169.180 163.909,169.165 163.690,168.920 163.444 C 168.707 163.232,168.533 162.699,168.533 162.261 C 168.533 161.376,167.994 160.857,167.650 161.412 M139.058 165.422 C 139.172 166.852,139.654 167.593,139.636 166.311 C 139.626 165.578,139.484 164.978,139.320 164.978 C 139.156 164.978,139.038 165.178,139.058 165.422 M170.551 167.728 C 170.460 167.877,170.609 168.206,170.882 168.458 C 171.289 168.835,171.378 168.823,171.378 168.391 C 171.378 167.787,170.797 167.321,170.551 167.728 M139.259 168.415 C 138.923 168.751,138.964 171.733,139.304 171.733 C 139.459 171.733,139.600 170.933,139.617 169.956 C 139.649 168.087,139.638 168.036,139.259 168.415 M139.347 172.652 C 139.330 173.027,139.263 173.845,139.198 174.470 C 139.130 175.126,139.285 175.776,139.565 176.007 C 139.967 176.341,140.017 176.058,139.860 174.338 C 139.671 172.257,139.404 171.381,139.347 172.652 M295.726 174.551 C 295.601 175.030,295.695 175.179,296.038 175.047 C 296.308 174.944,296.419 174.676,296.285 174.452 C 296.151 174.228,296.343 174.284,296.711 174.578 C 297.249 175.006,297.321 175.011,297.077 174.606 C 296.848 174.228,296.920 174.158,297.364 174.328 C 297.689 174.453,297.956 174.400,297.956 174.211 C 297.956 173.523,295.913 173.835,295.726 174.551 M174.566 174.786 C 174.853 175.160,175.117 175.517,175.153 175.579 C 175.188 175.641,175.318 175.529,175.441 175.330 C 175.564 175.132,175.300 174.775,174.854 174.537 C 174.091 174.131,174.074 174.145,174.566 174.786 M294.728 175.733 C 294.424 176.729,294.505 177.067,294.958 176.691 C 295.233 176.462,295.371 176.133,295.264 175.960 C 295.080 175.662,294.788 175.539,294.728 175.733 M177.504 178.911 C 177.681 179.442,178.489 179.735,178.489 179.268 C 178.489 179.077,178.236 178.823,177.926 178.704 C 177.580 178.572,177.417 178.651,177.504 178.911 M140.111 180.337 C 140.085 181.035,141.567 182.756,142.195 182.756 C 142.429 182.756,142.506 182.571,142.366 182.345 C 142.191 182.062,142.267 182.034,142.612 182.256 C 143.229 182.654,146.489 182.722,146.489 182.338 C 146.489 182.184,146.014 182.114,145.434 182.181 C 144.853 182.249,144.294 182.220,144.190 182.116 C 144.087 182.013,143.482 181.874,142.846 181.807 C 141.173 181.631,140.821 181.445,140.458 180.541 C 140.224 179.957,140.128 179.900,140.111 180.337 M290.948 180.834 C 289.966 181.937,289.353 183.586,290.264 182.675 C 290.583 182.356,290.844 181.943,290.844 181.758 C 290.844 181.572,291.194 181.188,291.621 180.905 C 292.048 180.621,292.244 180.295,292.058 180.179 C 291.871 180.064,291.372 180.359,290.948 180.834 M296.770 181.926 C 296.640 182.056,296.533 182.984,296.533 183.988 C 296.533 184.992,296.341 186.005,296.107 186.240 C 295.775 186.572,295.777 186.667,296.115 186.667 C 296.745 186.667,297.175 185.287,297.145 183.362 C 297.130 182.442,297.093 181.689,297.063 181.689 C 297.032 181.689,296.901 181.796,296.770 181.926 M150.243 183.925 C 150.339 184.177,150.753 184.409,151.162 184.439 C 151.879 184.493,151.882 184.477,151.242 183.992 C 150.406 183.359,150.015 183.333,150.243 183.925 M183.467 185.357 C 183.467 185.767,184.916 187.072,185.248 186.962 C 185.464 186.890,185.152 186.469,184.554 186.027 C 183.956 185.585,183.467 185.283,183.467 185.357 M154.064 186.074 C 154.200 186.432,154.311 186.801,154.311 186.895 C 154.311 186.988,154.461 186.972,154.643 186.859 C 154.826 186.746,155.405 187.216,155.930 187.904 C 156.869 189.135,157.511 189.499,157.511 188.800 C 157.511 188.604,157.298 188.444,157.038 188.444 C 156.778 188.444,156.351 188.044,156.089 187.556 C 155.827 187.067,155.492 186.667,155.343 186.667 C 155.195 186.667,154.791 186.387,154.445 186.044 C 153.847 185.452,153.829 185.453,154.064 186.074 M163.911 188.089 C 163.653 188.571,163.649 188.800,163.899 188.800 C 164.101 188.800,164.267 188.551,164.267 188.246 C 164.267 187.917,164.434 187.795,164.677 187.945 C 164.931 188.102,164.991 188.043,164.834 187.788 C 164.485 187.224,164.351 187.268,163.911 188.089 M295.204 189.706 C 294.923 190.010,294.892 190.265,295.117 190.404 C 295.312 190.524,295.570 190.366,295.691 190.052 C 295.985 189.286,295.746 189.117,295.204 189.706 M189.709 191.322 C 189.819 191.499,190.139 191.644,190.421 191.644 C 190.703 191.644,190.933 191.804,190.933 192.000 C 190.933 192.196,191.113 192.356,191.332 192.356 C 191.622 192.356,191.619 192.220,191.321 191.861 C 190.861 191.307,189.398 190.817,189.709 191.322 M276.444 194.133 C 276.090 194.524,275.969 194.844,276.174 194.844 C 276.378 194.844,276.642 194.594,276.759 194.289 C 276.879 193.977,277.155 193.845,277.386 193.988 C 277.643 194.147,277.703 194.088,277.545 193.833 C 277.214 193.297,277.197 193.301,276.444 194.133 M196.622 195.814 C 196.916 195.925,197.284 196.232,197.440 196.497 C 197.596 196.761,197.875 196.978,198.059 196.978 C 198.243 196.978,198.119 196.658,197.784 196.267 C 197.449 195.876,196.931 195.568,196.632 195.584 C 196.156 195.608,196.154 195.636,196.622 195.814 M292.267 197.689 C 292.267 198.080,292.393 198.400,292.547 198.400 C 292.700 198.400,292.851 198.080,292.880 197.689 C 292.909 197.298,292.784 196.978,292.600 196.978 C 292.417 196.978,292.267 197.298,292.267 197.689 M267.771 199.244 C 267.540 199.521,267.056 199.671,266.694 199.577 C 266.332 199.482,265.928 199.579,265.797 199.791 C 265.419 200.403,267.580 200.257,268.096 199.636 C 268.343 199.338,268.466 199.014,268.368 198.916 C 268.270 198.818,268.002 198.966,267.771 199.244 M203.520 199.911 C 203.379 200.156,203.390 200.241,203.545 200.101 C 203.700 199.962,204.126 200.007,204.491 200.203 C 204.882 200.412,205.156 200.422,205.156 200.228 C 205.156 200.047,204.902 199.801,204.593 199.682 C 203.841 199.394,203.814 199.399,203.520 199.911 M291.200 200.148 C 291.200 200.523,291.000 200.920,290.756 201.031 C 290.511 201.141,290.631 201.193,291.022 201.146 C 291.760 201.056,292.289 199.467,291.580 199.467 C 291.371 199.467,291.200 199.773,291.200 200.148 M206.439 201.041 C 206.692 201.698,207.773 201.809,207.556 201.156 C 207.474 200.911,207.142 200.659,206.816 200.596 C 206.404 200.516,206.290 200.651,206.439 201.041 M260.109 202.518 C 259.533 202.940,259.515 203.022,260.000 203.022 C 260.319 203.022,260.686 202.852,260.815 202.643 C 261.191 202.033,260.854 201.973,260.109 202.518 M215.200 203.978 C 215.542 204.068,215.822 204.289,215.822 204.471 C 215.822 204.652,215.956 204.800,216.119 204.800 C 216.281 204.800,216.415 204.560,216.415 204.267 C 216.415 203.920,216.094 203.748,215.496 203.775 C 214.894 203.802,214.792 203.872,215.200 203.978 M254.094 204.267 C 253.834 204.943,254.544 204.937,255.446 204.255 C 256.110 203.753,256.101 203.733,255.217 203.733 C 254.712 203.733,254.206 203.973,254.094 204.267 M176.533 204.800 C 176.412 204.996,176.652 205.156,177.067 205.156 C 177.481 205.156,177.721 204.996,177.600 204.800 C 177.479 204.604,177.239 204.444,177.067 204.444 C 176.894 204.444,176.654 204.604,176.533 204.800 M219.763 204.901 C 219.844 204.956,220.191 205.216,220.533 205.477 C 221.066 205.885,221.156 205.871,221.156 205.377 C 221.156 205.022,220.859 204.800,220.385 204.800 C 219.961 204.800,219.681 204.845,219.763 204.901 M249.956 205.212 C 249.956 205.761,250.593 205.820,251.237 205.331 C 251.873 204.847,251.856 204.822,250.933 204.887 C 250.396 204.924,249.956 205.071,249.956 205.212 M181.076 205.984 C 181.234 206.458,183.467 206.631,183.467 206.169 C 183.467 206.003,183.187 205.854,182.844 205.839 C 182.502 205.825,181.933 205.757,181.580 205.690 C 181.209 205.620,180.996 205.744,181.076 205.984 M243.393 206.198 C 243.037 206.774,243.811 206.949,244.270 206.396 C 244.627 205.966,244.605 205.867,244.153 205.867 C 243.848 205.867,243.505 206.016,243.393 206.198 M288.000 206.400 C 287.637 206.837,287.662 206.933,288.134 206.933 C 288.452 206.933,288.711 206.693,288.711 206.400 C 288.711 206.107,288.651 205.867,288.577 205.867 C 288.503 205.867,288.243 206.107,288.000 206.400 M229.333 206.921 C 229.333 207.161,231.627 207.289,235.932 207.289 C 239.860 207.289,242.449 207.156,242.329 206.962 C 242.039 206.494,229.333 206.454,229.333 206.921 M227.556 208.140 C 227.556 208.485,228.557 208.615,229.010 208.328 C 229.375 208.097,229.245 208.009,228.533 208.005 C 227.996 208.002,227.556 208.063,227.556 208.140 M242.002 208.366 C 242.245 208.609,242.659 208.617,243.229 208.389 C 244.037 208.066,244.015 208.044,242.862 208.023 C 242.020 208.007,241.750 208.115,242.002 208.366 M285.778 210.023 C 285.436 210.112,285.156 210.414,285.156 210.693 C 285.156 211.416,285.621 211.320,286.140 210.489 C 286.384 210.098,286.542 209.796,286.492 209.819 C 286.441 209.842,286.120 209.933,285.778 210.023 M188.089 210.667 C 188.332 210.960,188.667 211.200,188.832 211.200 C 188.998 211.200,189.041 210.960,188.929 210.667 C 188.816 210.373,188.481 210.133,188.185 210.133 C 187.746 210.133,187.729 210.232,188.089 210.667 M223.022 212.773 C 222.582 212.978,222.222 213.268,222.222 213.418 C 222.222 213.837,223.928 213.738,224.197 213.302 C 224.582 212.680,223.890 212.368,223.022 212.773 M233.042 212.662 C 232.699 213.217,233.608 213.705,234.667 213.535 C 235.156 213.456,235.716 213.372,235.911 213.347 C 236.107 213.322,235.627 213.072,234.844 212.790 C 233.130 212.172,233.336 212.187,233.042 212.662 M238.162 213.739 C 238.688 214.438,239.920 214.818,240.198 214.367 C 240.308 214.189,240.020 214.044,239.559 214.044 C 239.097 214.044,238.496 213.844,238.222 213.600 C 237.802 213.226,237.793 213.248,238.162 213.739 M217.689 213.946 C 216.624 214.078,215.233 215.467,216.165 215.467 C 216.368 215.467,216.533 215.314,216.533 215.127 C 216.533 214.941,217.095 214.682,217.782 214.554 C 218.468 214.425,219.118 214.178,219.225 214.004 C 219.332 213.831,219.290 213.714,219.132 213.746 C 218.974 213.777,218.325 213.867,217.689 213.946 M247.161 218.281 C 247.622 218.655,248.068 218.893,248.152 218.810 C 248.335 218.629,247.061 217.627,246.627 217.611 C 246.459 217.605,246.699 217.906,247.161 218.281 M205.924 220.444 C 205.282 221.031,204.635 221.511,204.486 221.511 C 204.338 221.511,202.719 222.951,200.889 224.711 C 199.059 226.471,197.765 227.911,198.013 227.911 C 198.261 227.911,199.930 226.508,201.721 224.793 C 203.512 223.079,205.618 221.164,206.400 220.539 C 207.182 219.913,207.658 219.396,207.457 219.390 C 207.256 219.383,206.566 219.858,205.924 220.444 M277.922 220.508 C 277.408 221.129,277.064 221.716,277.160 221.812 C 277.255 221.907,277.373 221.918,277.422 221.835 C 277.471 221.753,277.981 221.166,278.555 220.532 C 279.130 219.897,279.433 219.378,279.229 219.378 C 279.025 219.378,278.437 219.886,277.922 220.508 M251.745 222.108 C 251.764 222.608,252.800 223.809,252.800 223.331 C 252.800 223.085,252.560 222.643,252.267 222.349 C 251.973 222.056,251.738 221.947,251.745 222.108 M190.696 225.956 C 190.696 226.249,190.813 226.489,190.955 226.489 C 191.097 226.489,191.305 226.249,191.417 225.956 C 191.535 225.650,191.425 225.422,191.159 225.422 C 190.905 225.422,190.696 225.662,190.696 225.956 M271.973 226.462 C 271.311 227.039,270.847 227.588,270.941 227.682 C 271.035 227.776,271.647 227.374,272.301 226.790 C 272.955 226.205,273.419 225.656,273.332 225.570 C 273.246 225.483,272.634 225.884,271.973 226.462 M190.578 227.378 C 190.578 227.671,190.738 227.911,190.933 227.911 C 191.129 227.911,191.289 227.671,191.289 227.378 C 191.289 227.084,191.129 226.844,190.933 226.844 C 190.738 226.844,190.578 227.084,190.578 227.378 M259.217 229.315 C 258.933 229.495,258.584 229.570,258.442 229.482 C 258.299 229.394,258.082 229.484,257.959 229.683 C 257.831 229.890,258.108 230.044,258.608 230.044 C 259.087 230.044,259.572 229.804,259.684 229.511 C 259.922 228.891,259.902 228.882,259.217 229.315 M265.668 230.163 C 266.167 230.662,267.378 230.817,267.378 230.382 C 267.378 230.242,267.018 230.031,266.578 229.913 C 265.359 229.586,265.149 229.644,265.668 230.163 " stroke="none" fill="#0ddcfc" fill-rule="evenodd"></path><path id="path4" d="M206.044 220.856 C 205.067 221.634,203.067 223.452,201.600 224.897 C 200.133 226.341,198.533 227.680,198.044 227.872 L 197.156 228.222 198.222 228.244 C 199.122 228.263,199.974 227.589,203.653 223.950 C 208.311 219.343,208.894 218.589,206.044 220.856 M201.956 274.832 C 201.956 275.034,202.196 275.200,202.489 275.200 C 202.782 275.200,203.022 275.360,203.022 275.556 C 203.022 275.751,203.192 275.911,203.399 275.911 C 203.921 275.911,203.480 275.280,202.647 274.834 C 202.172 274.579,201.956 274.579,201.956 274.832 " stroke="none" fill="#8cfcfc" fill-rule="evenodd"></path></g></svg>